<svg id="Calque_1" data-name="Calque 1" xmlns="http://www.w3.org/2000/svg" viewBox="0 0 353.27 229.4"><defs><style>.cls-1{fill:#f2f2f2;}.cls-2{fill:#f6b6b9;}.cls-3{fill:#302f42;}.cls-4{fill:#37374d;}.cls-5{fill:#cdcccc;}.cls-6{fill:#403e56;}.cls-7{fill:#e7e6e6;}.cls-8{fill:#fff;}.cls-9{fill:#3fb0ac;}</style></defs><title>contact_us4</title><path class="cls-1" d="M357.94,118.92A36.23,36.23,0,0,1,324.5,155l-.93.06V120.71a2.3,2.3,0,0,0-.85-1.79l-.1-.08-.11-.07a2.32,2.32,0,0,0-2.22-.16l-.39-.85a3.25,3.25,0,0,1,1.34-.29L294.79,94.67l.63-.69a36.23,36.23,0,0,1,62.52,24.93Z" transform="translate(-4.67 -11.21)"/><path class="cls-2" d="M13.86,143.62A4.69,4.69,0,0,1,18.38,138l20.88-24.86,5.21,6.67L23.19,143a4.71,4.71,0,0,1-9.33.64Z" transform="translate(-4.67 -11.21)"/><path class="cls-2" d="M113,113a4.89,4.89,0,0,0-.39.67l-22.8,3.26-3.46-4.4-7.32,4.36,6.88,10.72,27.81-8.2A4.88,4.88,0,1,0,113,113Z" transform="translate(-4.67 -11.21)"/><polygon class="cls-2" points="69.41 184.87 73.44 188.89 90.86 175.24 84.91 169.31 69.41 184.87"/><path class="cls-3" d="M82.17,211.6,69.48,199h0l4.88-4.9h0l7.78,7.75a6.91,6.91,0,0,1,0,9.78h0Z" transform="translate(-4.67 -11.21)"/><polygon class="cls-2" points="47.96 223.41 53.65 223.41 56.36 201.44 47.96 201.44 47.96 223.41"/><path class="cls-3" d="M69.31,239.91H51.41V233h11a6.91,6.91,0,0,1,6.92,6.91h0Z" transform="translate(-4.67 -11.21)"/><path class="cls-4" d="M51.39,217.66l-6.49-47.84a59.9,59.9,0,0,1,.93-21.7c1.33-5.72,3.13-9.68,5.34-11.77a2.19,2.19,0,0,1,1.27-.58l21.42-2.23a2.19,2.19,0,0,1,2.09,1l.7,1.17a2.18,2.18,0,0,1,.21.45l4.53,14a1.68,1.68,0,0,0,.84,1c7.13,3.64,30.29,15.93,29,21.23-1.25,5-12.9,13.06-16.45,15.41a2.16,2.16,0,0,1-2.43,0l-5.88-4a2.18,2.18,0,0,1-.06-3.55l4.06-3a1.7,1.7,0,0,0-.44-3l-21.78-7.64A1.7,1.7,0,0,0,66,168.14l-4,49.09a2.19,2.19,0,0,1-2.06,2l-6.21.31h-.11A2.17,2.17,0,0,1,51.39,217.66Z" transform="translate(-4.67 -11.21)"/><circle class="cls-2" cx="56.54" cy="71.31" r="11.41"/><path class="cls-5" d="M50.54,134.4l-8.4-30.64.14-.1c.18-.12,18.28-12.07,39.47-2.44l.38.22-5,31.8a3.15,3.15,0,0,1-3,2.68l-20.48.79h-.12A3.14,3.14,0,0,1,50.54,134.4Z" transform="translate(-4.67 -11.21)"/><path class="cls-5" d="M41.83,123.7l-7-8a2.18,2.18,0,0,1,0-2.8l7.31-9,5.61,1.53,3,10.41-5.43,7.75a2.17,2.17,0,0,1-1.67.93h-.12A2.16,2.16,0,0,1,41.83,123.7Z" transform="translate(-4.67 -11.21)"/><path class="cls-5" d="M80.5,122a2.17,2.17,0,0,1-1.67-.93l-5.43-7.75,2.61-11L81.18,101l1,.46,7.16,9a2.18,2.18,0,0,1,0,2.8l-7,8a2.16,2.16,0,0,1-1.64.75Z" transform="translate(-4.67 -11.21)"/><path class="cls-6" d="M323.57,118.44a.46.46,0,0,1-.11.32.46.46,0,0,1-.65.05l-1.56-1.34L294.79,94.67,220.58,30.73a2.33,2.33,0,0,0-3,0l-99.93,86.82-.9.78-.12.07a.46.46,0,0,1-.24,0,.48.48,0,0,1-.3-.15.46.46,0,0,1,0-.65h0l.13-.11L216.94,30a3.27,3.27,0,0,1,4.25,0l74.23,64,28,24.12A.47.47,0,0,1,323.57,118.44Z" transform="translate(-4.67 -11.21)"/><path class="cls-7" d="M267.15,132.15l-1.22-3.36-4.21-11.61-9.07-25L242.52,64.23,224.24,13.82a4,4,0,0,0-5.06-2.36L113.5,49.77a4,4,0,0,0-2.36,5.06l25.91,71.47.44,1.22,27.2,12.33,7.65,3.47,1.24.56L206,158.54l1.25-.46,21.23-7.7,32-11.61,4.32-1.57A4,4,0,0,0,267.15,132.15Z" transform="translate(-4.67 -11.21)"/><path class="cls-8" d="M222.84,72.62a5.82,5.82,0,0,0-7.44-3.48L173.58,84.31l-20.19,7.32a5.81,5.81,0,1,0,4,10.92h0l16.23-5.89,45.78-16.6A5.82,5.82,0,0,0,222.84,72.62Z" transform="translate(-4.67 -11.21)"/><path class="cls-8" d="M230.2,92.93a5.82,5.82,0,0,0-7.44-3.48L215.67,92l-42.09,15.26-12.83,4.65a5.81,5.81,0,0,0,4,10.92h0l8.87-3.22,53.14-19.27.35-.14A5.81,5.81,0,0,0,230.2,92.93Z" transform="translate(-4.67 -11.21)"/><path class="cls-8" d="M237.64,113.45A5.81,5.81,0,0,0,230.2,110l-19.87,7.2L195,122.76l-21.38,7.75-5.39,2a5.82,5.82,0,0,0-3.78,6.23,5.74,5.74,0,0,0,.28,1.15l7.65,3.47,1.24-.45h0l38.79-14.06,21.78-7.9a5.81,5.81,0,0,0,3.48-7.44Z" transform="translate(-4.67 -11.21)"/><path class="cls-8" d="M194.1,52.66a5.82,5.82,0,0,0-7.44-3.48l-24,8.7a5.81,5.81,0,1,0,4,10.92l7.6-2.75,5-1.83,11.39-4.13A5.81,5.81,0,0,0,194.1,52.66Z" transform="translate(-4.67 -11.21)"/><path class="cls-9" d="M289.94,64.23H177.53a4,4,0,0,0-3.33,1.83,3.91,3.91,0,0,0-.62,2.12v75.69L206,158.54l4.56,2.07,7.2,3.27a3.26,3.26,0,0,0,2.68,0l7.2-3.27,22.55-10.22,21-9.53,22.72-10.29V68.17A4,4,0,0,0,289.94,64.23Z" transform="translate(-4.67 -11.21)"/><path class="cls-8" d="M266.71,117.18h-66a5.8,5.8,0,0,0-5.8,5.58,1.86,1.86,0,0,0,0,.23,5.81,5.81,0,0,0,5.81,5.81h66a5.81,5.81,0,0,0,0-11.61Z" transform="translate(-4.67 -11.21)"/><path class="cls-8" d="M270.47,140.16a5.76,5.76,0,0,0-3.76-1.38h-66a5.81,5.81,0,1,0,0,11.61h49.4l21-9.53A5.84,5.84,0,0,0,270.47,140.16Z" transform="translate(-4.67 -11.21)"/><path class="cls-8" d="M210.51,160.61l7.2,3.27a3.26,3.26,0,0,0,2.68,0l7.2-3.27Z" transform="translate(-4.67 -11.21)"/><path class="cls-8" d="M252,92.43a5.81,5.81,0,0,0-5.45-3.81H221A5.81,5.81,0,0,0,215.67,92a5.74,5.74,0,0,0-.52,2.4,5.81,5.81,0,0,0,5.81,5.81h25.55a5.81,5.81,0,0,0,5.45-7.8Z" transform="translate(-4.67 -11.21)"/><path class="cls-6" d="M247.9,150.39l-22.55,10.22L220,163a2.33,2.33,0,0,1-1.91,0l-5.34-2.42h-2.25l7.2,3.27a3.26,3.26,0,0,0,2.68,0l7.2-3.27,22.55-10.22Zm0,0-22.55,10.22L220,163a2.33,2.33,0,0,1-1.91,0l-5.34-2.42h-2.25l7.2,3.27a3.26,3.26,0,0,0,2.68,0l7.2-3.27,22.55-10.22Zm0,0-22.55,10.22L220,163a2.33,2.33,0,0,1-1.91,0l-5.34-2.42h-2.25l7.2,3.27a3.26,3.26,0,0,0,2.68,0l7.2-3.27,22.55-10.22Zm75.67-32A3.55,3.55,0,0,0,323,118a3.23,3.23,0,0,0-3.1-.23l-49.44,22.41L247.9,150.39l-22.55,10.22L220,163a2.33,2.33,0,0,1-1.91,0l-5.34-2.42-5.56-2.52-33.62-15.23h0l-9.16-4.16-27.36-12.4-18.84-8.54a2.84,2.84,0,0,0-.6-.2,3.12,3.12,0,0,0-1.39,0,3.26,3.26,0,0,0-2.61,3.19V237.36a3.26,3.26,0,0,0,3.25,3.25H321.25a3.26,3.26,0,0,0,3.25-3.25V120.71a3.24,3.24,0,0,0-.93-2.28Zm0,118.92a2.32,2.32,0,0,1-2.32,2.32H116.87a2.32,2.32,0,0,1-2.32-2.32V120.71a2.32,2.32,0,0,1,1.06-2,2.4,2.4,0,0,1,.75-.32l.24,0,.27,0a2.31,2.31,0,0,1,1,.21l19.67,8.91,27.2,12.33,7.65,3.47,1.24.56L206,158.54l4.56,2.07,7.2,3.27a3.26,3.26,0,0,0,2.68,0l7.2-3.27,22.55-10.22,21-9.53,49.12-22.26a2.32,2.32,0,0,1,2.22.16l.11.07.1.08a2.3,2.3,0,0,1,.85,1.79Zm-75.67-87-22.55,10.22L220,163a2.33,2.33,0,0,1-1.91,0l-5.34-2.42h-2.25l7.2,3.27a3.26,3.26,0,0,0,2.68,0l7.2-3.27,22.55-10.22Zm0,0-22.55,10.22L220,163a2.33,2.33,0,0,1-1.91,0l-5.34-2.42h-2.25l7.2,3.27a3.26,3.26,0,0,0,2.68,0l7.2-3.27,22.55-10.22Zm-75.56-7.08,1.24.56v-1Zm75.56,7.08-22.55,10.22L220,163a2.33,2.33,0,0,1-1.91,0l-5.34-2.42h-2.25l7.2,3.27a3.26,3.26,0,0,0,2.68,0l7.2-3.27,22.55-10.22Z" transform="translate(-4.67 -11.21)"/><path class="cls-6" d="M86.2,240.61H33.72a.46.46,0,1,1,0-.93H86.2a.46.46,0,1,1,0,.93Z" transform="translate(-4.67 -11.21)"/><path class="cls-4" d="M56.88,90.87a5,5,0,0,1,.46-9.07c3.44-1.33,7.3,1.38,10.91.61s5.68-5.07,4.82-8.64-4-6.27-7.43-7.56a16,16,0,0,0-13.81,1.27,14.75,14.75,0,0,0-6.94,11.91,13.67,13.67,0,0,0,6.62,12,4.29,4.29,0,0,0,3,.72A8.41,8.41,0,0,0,56.88,90.87Z" transform="translate(-4.67 -11.21)"/><path class="cls-4" d="M53.18,67.2a25.67,25.67,0,0,0-11.9-9,18.94,18.94,0,0,0-14.7.81,15.06,15.06,0,0,0-8.17,12c-.58,8.37,6.57,15.49,7.31,23.85a16,16,0,0,1-21,16.62,16.88,16.88,0,0,0,13,3.69,15.69,15.69,0,0,0,11.17-7.52,22,22,0,0,0,2.53-9.26,41.16,41.16,0,0,0-1.61-15.09c-.8-2.67-1.89-5.41-1.38-8.15a7.42,7.42,0,0,1,5.78-5.78c2.3-.43,4.65.27,6.85,1.08a21.38,21.38,0,0,0,6.75,1.8c2.34.05,4.89-1,5.79-3.18Z" transform="translate(-4.67 -11.21)"/></svg>